<svg xmlns="http://www.w3.org/2000/svg" viewBox="0 0 900 500"><rect width="900" height="500" rx="32" fill="#fff"/><text x="450" y="52" text-anchor="middle" font-family="Arial" font-size="24" font-weight="800" fill="#082f49">ĐIỆN ĐI ĐÂU SAU KHI RỜI TẤM PIN?</text><g font-family="Arial"><g transform="translate(55 165)"><rect width="160" height="120" rx="20" fill="#eff6ff"/><path d="M34 35h92v50H34z" fill="#0b4a6f"/><path d="M65 35v50M96 35v50M34 60h92" stroke="#38bdf8" stroke-width="3"/><text x="80" y="108" text-anchor="middle" font-size="15" font-weight="800" fill="#082f49">TẤM PIN</text></g><path d="M225 225h75" stroke="#f97316" stroke-width="8" stroke-linecap="round"/><path d="m288 211 18 14-18 14" fill="none" stroke="#f97316" stroke-width="8"/><g transform="translate(315 165)"><rect width="160" height="120" rx="20" fill="#fff7ed"/><rect x="48" y="25" width="64" height="56" rx="8" fill="#f97316"/><text x="80" y="108" text-anchor="middle" font-size="15" font-weight="800" fill="#082f49">INVERTER</text></g><path d="M485 225h70" stroke="#f97316" stroke-width="8" stroke-linecap="round"/><path d="m543 211 18 14-18 14" fill="none" stroke="#f97316" stroke-width="8"/><g transform="translate(575 105)"><rect width="270" height="105" rx="20" fill="#ecfdf5"/><text x="135" y="45" text-anchor="middle" font-size="17" font-weight="800" fill="#0f766e">TẢI ĐANG DÙNG</text><text x="135" y="72" text-anchor="middle" font-size="13" fill="#475569">Ưu tiên tự dùng tại công trình</text></g><g transform="translate(575 245)"><rect width="270" height="105" rx="20" fill="#f8fafc" stroke="#e2e8f0"/><text x="135" y="45" text-anchor="middle" font-size="17" font-weight="800" fill="#082f49">BATTERY / LƯỚI</text><text x="135" y="72" text-anchor="middle" font-size="13" fill="#475569">Tùy kiến trúc và mục tiêu hệ thống</text></g><path d="M555 225v72h20" fill="none" stroke="#0b4a6f" stroke-width="6" stroke-linecap="round"/><text x="450" y="425" text-anchor="middle" font-size="15" fill="#64748b">Vì vậy: cùng số tấm pin, cách dùng điện khác nhau vẫn có thể cho hiệu quả khác nhau.</text></g></svg>